<?xml version="1.0" standalone="no"?>
<!DOCTYPE svg PUBLIC "-//W3C//DTD SVG 20010904//EN"
 "http://www.w3.org/TR/2001/REC-SVG-20010904/DTD/svg10.dtd">
<svg version="1.0" xmlns="http://www.w3.org/2000/svg"
 width="194.000000pt" height="194.000000pt" viewBox="0 0 194.000000 194.000000"
 preserveAspectRatio="xMidYMid meet">
<metadata>
Created by potrace 1.11, written by Peter Selinger 2001-2013
</metadata>
<g transform="translate(0.000000,194.000000) scale(0.100000,-0.100000)"
fill="#000000" stroke="none">
<path d="M778 1920 c-340 -71 -617 -314 -726 -635 -213 -629 256 -1285 918
-1285 283 0 568 134 745 350 387 473 259 1163 -271 1465 -196 112 -447 151
-666 105z m362 -575 l170 170 95 -95 c52 -52 95 -99 95 -105 0 -6 -74 -84
-165 -175 l-165 -165 172 -172 173 -173 -103 -102 -102 -103 -173 173 -172
172 -165 -165 c-91 -91 -169 -165 -175 -165 -6 0 -53 43 -105 95 l-95 95 170
170 170 170 -168 168 -167 167 102 103 103 102 167 -167 168 -168 170 170z"/>
</g>
</svg>
