<?xml version="1.0" encoding="UTF-8"?>
<svg width="106px" height="23px" viewBox="0 0 106 23" version="1.1" xmlns="http://www.w3.org/2000/svg" xmlns:xlink="http://www.w3.org/1999/xlink">
    <!-- Generator: Sketch 50.2 (55047) - http://www.bohemiancoding.com/sketch -->
    <title>US-UK_Apple_Music_Lockup_all-white</title>
    <desc>Created with Sketch.</desc>
    <defs></defs>
    <g id="Page-1" stroke="none" stroke-width="1" fill="none" fill-rule="evenodd">
        <g id="US-UK_Apple_Music_Lockup_all-white" fill="#FFFFFF" fill-rule="nonzero">
            <g id="XMLID_2_" transform="translate(25.000000, 0.000000)">
                <g id="XMLID_3_" transform="translate(1.000000, 0.000000)">
                    <polygon id="XMLID_4_" points="3.4696045 6.4085083 0.2562256 6.4085083 0.2562256 1.2561646 1.0560303 1.2561646 1.0560303 5.6731568 3.4696045 5.6731568"></polygon>
                    <path d="M4.3929443,1.3704224 C4.3929443,1.1028443 4.6033935,0.8987427 4.8890381,0.8987427 C5.1746827,0.8987427 5.3856201,1.1028443 5.3856201,1.3704224 C5.3856201,1.6340943 5.1746826,1.8381958 4.8890381,1.8381958 C4.6033936,1.8381958 4.3929443,1.6340942 4.3929443,1.3704224 Z M4.5072021,2.5198364 L5.2713623,2.5198364 L5.2713623,6.4085083 L4.5072021,6.4085083 L4.5072021,2.5198364 Z" id="XMLID_6_"></path>
                    <path d="M7.927124,2.4446411 C8.802124,2.4446411 9.3734131,2.8518677 9.4481201,3.5374145 L8.7127685,3.5374145 C8.6414794,3.2522583 8.3626708,3.0696411 7.927124,3.0696411 C7.4989013,3.0696411 7.173706,3.2737427 7.173706,3.576477 C7.173706,3.8088989 7.3699951,3.9553832 7.7913818,4.0520629 L8.4378662,4.201477 C9.177124,4.373352 9.5233154,4.6907348 9.5233154,5.2620239 C9.5233154,5.9944458 8.8411865,6.4837036 7.9129638,6.4837036 C6.9881591,6.4837036 6.3846435,6.0657348 6.3167724,5.3762817 L7.0843505,5.3762817 C7.1810302,5.6760864 7.4666747,5.8616333 7.9305419,5.8616333 C8.4090575,5.8616333 8.748413,5.6477661 8.748413,5.3372192 C8.748413,5.1047973 8.5662841,4.9553833 8.1771239,4.8626098 L7.4989012,4.7053832 C6.7596434,4.5305785 6.41687,4.1985473 6.41687,3.6194457 C6.4168701,2.9309692 7.0487061,2.4446411 7.927124,2.4446411 Z" id="XMLID_9_"></path>
                    <path d="M11.5613937,1.552063 L11.5613937,2.5374146 L12.4036865,2.5374146 L12.4036865,3.183899 L11.5613937,3.183899 L11.5613937,5.183899 C11.5613937,5.590149 11.7288818,5.7688599 12.111206,5.7688599 C12.2288818,5.7688599 12.2967529,5.762024 12.4036865,5.7512818 L12.4036865,6.3899537 C12.2786865,6.4114381 12.1361084,6.4299928 11.986206,6.4299928 C11.1326904,6.4299928 10.7933349,6.1301881 10.7933349,5.3801881 L10.7933349,3.1838989 L10.1756591,3.1838989 L10.1756591,2.5374146 L10.7933349,2.5374146 L10.7933349,1.552063 L11.5613937,1.552063 Z" id="XMLID_11_"></path>
                    <path d="M16.6575928,5.3587036 C16.4822998,6.0549927 15.8612061,6.4837036 14.9720459,6.4837036 C13.8582764,6.4837036 13.1761475,5.7190552 13.1761475,4.4768677 C13.1761475,3.2337036 13.8724366,2.4446411 14.968628,2.4446411 C16.050171,2.4446411 16.7039796,3.1838989 16.7039796,4.4055786 L16.7039796,4.6731567 L13.9578858,4.6731567 L13.9578858,4.7161255 C13.9827881,5.3977661 14.3792725,5.8294067 14.9935303,5.8294067 C15.4578858,5.8294067 15.7752686,5.6624145 15.918335,5.3587036 L16.6575928,5.3587036 Z M13.9578857,4.1047974 L15.9217529,4.1047974 C15.9041748,3.4944458 15.5325927,3.0979615 14.9647217,3.0979615 C14.3973389,3.0979614 14.0008545,3.4983521 13.9578857,4.1047974 Z" id="XMLID_13_"></path>
                    <path d="M17.727417,2.5198364 L18.4661865,2.5198364 L18.4661865,3.1380005 L18.5233154,3.1380005 C18.7127685,2.7053833 19.0985107,2.4446411 19.6839599,2.4446411 C20.5516357,2.4446411 21.0301513,2.9661255 21.0301513,3.8909302 L21.0301513,6.4085084 L20.2625732,6.4085083 L20.2625732,4.0842896 C20.2625732,3.4592896 19.9910888,3.1487427 19.4232177,3.1487427 C18.8558349,3.1487427 18.494995,3.5266724 18.494995,4.1340943 L18.494995,6.4085084 L17.727417,6.4085084 L17.727417,2.5198364 Z" id="XMLID_17_"></path>
                    <path d="M24.1234131,4.4622192 C24.1234131,3.2092895 24.8231201,2.4446411 25.958374,2.4446411 C27.0906982,2.4446411 27.7904052,3.2092895 27.7904052,4.4622192 C27.7904052,5.7229614 27.0941161,6.4837036 25.958374,6.4837036 C24.8197021,6.4837036 24.1234131,5.7229614 24.1234131,4.4622192 Z M27.0013428,4.4622192 C27.0013428,3.6194458 26.6229248,3.1272583 25.958374,3.1272583 C25.2908935,3.1272583 24.9158935,3.6194458 24.9158935,4.4622192 C24.9158935,5.3118286 25.2908935,5.8010864 25.958374,5.8010864 C26.6229248,5.8010864 27.0013428,5.3088989 27.0013428,4.4622192 Z" id="XMLID_19_"></path>
                    <path d="M28.8133545,2.5198364 L29.552124,2.5198364 L29.552124,3.1380005 L29.6092529,3.1380005 C29.798706,2.7053833 30.1844482,2.4446411 30.7698974,2.4446411 C31.6375732,2.4446411 32.1160888,2.9661255 32.1160888,3.8909302 L32.1160888,6.4085084 L31.3485107,6.4085083 L31.3485107,4.0842896 C31.3485107,3.4592896 31.0770263,3.1487427 30.5091552,3.1487427 C29.9417724,3.1487427 29.5809325,3.5266724 29.5809325,4.1340943 L29.5809325,6.4085084 L28.8133544,6.4085084 L28.8133544,2.5198364 Z" id="XMLID_22_"></path>
                </g>
                <g id="XMLID_450_" transform="translate(0.000000, 9.000000)">
                    <g id="XMLID_25_">
                        <path d="M7.4569092,8.3655396 L3.4285889,8.3655396 L2.461792,11.2219849 L0.755249,11.2219849 L4.571167,0.6536255 L6.3436279,0.6536255 L10.1595459,11.2219849 L8.4237061,11.2219849 L7.4569092,8.3655396 Z M3.8460693,7.0471802 L7.0394287,7.0471802 L5.4647217,2.411438 L5.4207764,2.411438 L3.8460693,7.0471802 Z" id="XMLID_26_"></path>
                        <path d="M18.3919678,7.3694458 C18.3919678,9.7649536 17.1102295,11.3030396 15.1766358,11.3030396 C14.078003,11.3030396 13.206421,10.8118287 12.7523194,9.9553834 L12.7156983,9.9553834 L12.7156983,13.7708131 L11.133667,13.7708131 L11.133667,3.5169067 L12.6644287,3.5169067 L12.6644287,4.7991333 L12.6937256,4.7991333 C13.1331787,3.9710083 14.0706787,3.4368286 15.1473389,3.4368286 C17.1029053,3.4368286 18.3919678,4.9817505 18.3919678,7.3694458 Z M16.7659912,7.3694458 C16.7659912,5.8098755 15.9603271,4.7844849 14.7298584,4.7844849 C13.5213623,4.7844849 12.708374,5.8313599 12.708374,7.3694458 C12.708374,8.9221802 13.5213623,9.9622192 14.7298584,9.9622192 C15.9603271,9.9622192 16.7659912,8.9446411 16.7659912,7.3694458 Z" id="XMLID_29_"></path>
                        <path d="M26.8660889,7.3694458 C26.8660889,9.7649536 25.5843506,11.3030396 23.6507569,11.3030396 C22.5521241,11.3030396 21.6805421,10.8118287 21.2264405,9.9553834 L21.1898194,9.9553834 L21.1898194,13.7708131 L19.6077882,13.7708131 L19.6077882,3.5169067 L21.1385499,3.5169067 L21.1385499,4.7991333 L21.1678468,4.7991333 C21.6072999,3.9710083 22.5447999,3.4368286 23.6214601,3.4368286 C25.5770264,3.4368286 26.8660889,4.9817505 26.8660889,7.3694458 Z M25.2401123,7.3694458 C25.2401123,5.8098755 24.4344482,4.7844849 23.2039795,4.7844849 C21.9954834,4.7844849 21.1824951,5.8313599 21.1824951,7.3694458 C21.1824951,8.9221802 21.9954834,9.9622192 23.2039795,9.9622192 C24.4344482,9.9622192 25.2401123,8.9446411 25.2401123,7.3694458 Z" id="XMLID_40_"></path>
                        <polygon id="XMLID_44_" points="28.1405029 0.6536255 29.7225341 0.6536255 29.7225341 11.2219849 28.1405029 11.2219849"></polygon>
                        <path d="M37.9549561,8.9592896 C37.7425538,10.3577271 36.3802491,11.317688 34.637085,11.317688 C32.3958741,11.317688 31.0042725,9.8157349 31.0042725,7.4065552 C31.0042725,4.989563 32.4031983,3.4221802 34.571167,3.4221802 C36.7025147,3.4221802 38.0428467,4.887024 38.0428467,7.2229614 L38.0428467,7.7649536 L32.6009522,7.7649536 L32.6009522,7.8606567 C32.6009522,9.1790161 33.4285889,10.0432739 34.6737061,10.0432739 C35.5526123,10.0432739 36.2410889,9.6253051 36.4534913,8.9592895 L37.9549561,8.9592895 Z M32.6082764,6.6594849 L36.4608155,6.6594849 C36.4241944,5.4797974 35.6697999,4.7034302 34.5711671,4.7034302 C33.4798584,4.7034302 32.6888428,5.4944458 32.6082764,6.6594849 Z" id="XMLID_46_"></path>
                        <polygon id="XMLID_49_" points="51.6883545 11.2219849 51.6883545 3.4436646 51.6365967 3.4436646 48.4510498 11.1419068 47.2352295 11.1419068 44.0418701 3.4436646 43.9901123 3.4436646 43.9901123 11.2219849 42.4959717 11.2219849 42.4959717 0.6536255 44.3934326 0.6536255 47.8133545 8.9954224 47.8719483 8.9954224 51.2850342 0.6536255 53.1893311 0.6536255 53.1893311 11.2219849 51.6883545 11.2219849"></polygon>
                        <path d="M61.6141357,11.2219849 L60.0975341,11.2219849 L60.0975341,9.8967896 L60.0613937,9.8967896 C59.6219482,10.8196412 58.852417,11.3098755 57.673706,11.3098755 C55.9959716,11.3098755 54.970581,10.2258911 54.970581,8.4612427 L54.970581,3.5169068 L56.5526122,3.5169068 L56.5526122,8.1536256 C56.5526122,9.3255006 57.1092528,9.9475709 58.2010497,9.9475709 C59.3436278,9.9475709 60.0321044,9.1565553 60.0321044,7.9553834 L60.0321044,3.5169068 L61.6141357,3.5169068 L61.6141356,11.2219849 Z" id="XMLID_51_"></path>
                        <path d="M66.1121826,3.4290161 C67.8192138,3.4290161 69.0418701,4.3743286 69.0789795,5.7366333 L67.5916748,5.7366333 C67.5262451,5.0549927 66.9471436,4.6380005 66.0682373,4.6380005 C65.211792,4.6380005 64.6405029,5.0335083 64.6405029,5.6340943 C64.6405029,6.0950318 65.0213623,6.402649 65.8192138,6.6008912 L67.1160888,6.9006959 C68.6688232,7.2747193 69.2547607,7.8460084 69.2547607,8.9739381 C69.2547607,10.3655397 67.9363937,11.3176881 66.0535888,11.3176881 C64.2371826,11.3176881 63.0145263,10.387024 62.8973388,8.980774 L64.4647216,8.980774 C64.5740966,9.7210084 65.1678466,10.1165162 66.126831,10.1165162 C67.0721435,10.1165162 67.6649169,9.7278443 67.6649169,9.11261 C67.6649169,8.6370241 67.3719481,8.3801881 66.5662841,8.17511 L65.189331,7.8381959 C63.7977294,7.5012818 63.0946044,6.7913209 63.0946044,5.721985 C63.0946045,4.3596802 64.3182373,3.4290161 66.1121826,3.4290161 Z" id="XMLID_53_"></path>
                        <path d="M70.4862061,1.4885864 C70.4862061,0.982727 70.8963623,0.5803833 71.4022217,0.5803833 C71.914917,0.5803833 72.3250733,0.9827271 72.3250733,1.4885864 C72.3250733,1.9866333 71.9149171,2.388977 71.4022217,2.388977 C70.8963623,2.3889771 70.4862061,1.9866333 70.4862061,1.4885864 Z M70.6112061,3.5169067 L72.1932373,3.5169067 L72.1932373,11.2219848 L70.6112061,11.2219848 L70.6112061,3.5169067 Z" id="XMLID_55_"></path>
                        <path d="M79.0067139,6.1682739 C78.868042,5.3557739 78.2303467,4.7473755 77.1903077,4.7473755 C75.9744874,4.7473755 75.1688233,5.7659302 75.1688233,7.3694458 C75.1688233,9.0100708 75.9822999,9.9993286 77.2049561,9.9993286 C78.1863938,9.9993286 78.8309327,9.5081177 79.0067139,8.614563 L80.5301514,8.614563 C80.3543702,10.2337036 79.0584717,11.317688 77.1903076,11.317688 C74.993042,11.317688 73.5574951,9.8157349 73.5574951,7.3694458 C73.5574951,4.9749146 74.993042,3.4221802 77.1756592,3.4221802 C79.1531983,3.4221802 80.383667,4.6672974 80.515503,6.168274 L79.0067139,6.168274 Z" id="XMLID_58_"></path>
                    </g>
                </g>
            </g>
            <path d="M20.9755249,2.8516235 C20.7675781,2.3232422 20.2875366,1.5793457 19.6069336,1.0552368 C19.2139282,0.7526245 18.744751,0.4633179 18.1003418,0.2723389 C17.4133301,0.0687866 16.5671997,0 15.5140991,0 L5.8847046,0 C4.831604,0 3.9854736,0.0687866 3.2984619,0.2723389 C2.6539917,0.4633179 2.1848755,0.7526245 1.7918701,1.0552368 C1.1112671,1.5793457 0.6312256,2.3232422 0.4232788,2.8516235 C0.0042725,3.9161377 0,5.1240234 0,5.8846436 L0,15.5140992 C0,16.2747193 0.0042725,17.4826051 0.4232788,18.5471192 C0.6312256,19.0755005 1.1112671,19.819397 1.7918701,20.3435059 C2.1848755,20.6461182 2.6539917,20.9354248 3.2984619,21.1264038 C3.9854736,21.329956 4.831604,21.3987427 5.8847046,21.3987427 L15.5140991,21.3987427 C16.5671997,21.3987427 17.4133301,21.3299561 18.1003418,21.1264038 C18.744751,20.9354248 19.2139282,20.6461182 19.6069336,20.3435059 C20.2875366,19.819397 20.7675781,19.0755005 20.9755249,18.5471192 C21.3945312,17.482605 21.3987427,16.2747193 21.3987427,15.5140992 L21.3987427,5.8846436 C21.3987427,5.1240234 21.3945312,3.9161377 20.9755249,2.8516235 Z M15.6104126,14.7178345 C15.5551147,14.9811402 15.4542236,15.2288819 15.2987061,15.4519654 C15.1436768,15.6743775 14.9448853,15.8566285 14.7132569,15.9934083 C14.4786988,16.1318971 14.2327271,16.2106935 13.9700318,16.263672 C13.4769288,16.3630983 13.1394654,16.3855592 12.8225098,16.3217775 C12.5167237,16.2603151 12.2575684,16.1197511 12.0504151,15.9297487 C11.7433472,15.6481935 11.551941,15.2678224 11.5101319,14.8703005 C11.4611207,14.4044192 11.616272,13.9067385 11.9660645,13.5401003 C12.1425782,13.3551638 12.3643189,13.2088015 12.6602784,13.0939333 C12.9700318,12.9737551 13.3118897,12.9019777 13.8373414,12.7960207 C13.9757081,12.7681276 14.1141358,12.7402346 14.2525636,12.7122805 C14.4346315,12.6756594 14.5906984,12.6290285 14.7165529,12.47522 C14.843384,12.3202517 14.8453981,12.1345828 14.8453981,11.9476321 L14.84552,7.2318726 C14.84552,6.8712159 14.6837768,6.7729493 14.3393554,6.8391114 C14.0932006,6.8871461 8.8063964,7.9533692 8.8063964,7.9533692 C8.5081787,8.0253906 8.4033813,8.1228638 8.4033813,8.4928589 L8.4035034,15.4026489 C8.4035034,15.673584 8.3893432,15.9139404 8.3323364,16.1853027 C8.2769775,16.4486694 8.1760864,16.6964111 8.0205688,16.9194946 C7.8655395,17.1419067 7.666748,17.3241577 7.4351196,17.4608764 C7.2006225,17.5993652 6.9545898,17.6821288 6.6918945,17.7351074 C6.1987915,17.8345337 5.8613891,17.8569946 5.5443725,17.7932129 C5.2386474,17.7318115 4.9794921,17.5872803 4.7722778,17.3972778 C4.465271,17.1157226 4.2863769,16.7353515 4.2445678,16.3378296 C4.1955566,15.8719483 4.3381347,15.3742676 4.6879882,15.0076294 C4.8645019,14.8226318 5.0861816,14.6763306 5.382141,14.5614624 C5.6919555,14.4412842 6.0337523,14.3695068 6.559204,14.2635498 C6.6975707,14.2356567 6.8360595,14.2077637 6.9744262,14.1798096 C7.1564941,14.1431275 7.312622,14.0965576 7.4384155,13.9427491 C7.564331,13.7889405 7.5787353,13.6045533 7.5787353,13.4188233 C7.5787353,11.9566651 7.5787353,5.4611207 7.5787353,5.4611207 C7.5787353,5.3538819 7.5880737,5.2825318 7.5935058,5.2466432 C7.6189575,5.0791627 7.6862182,4.935486 7.8074951,4.8336793 C7.9082641,4.7490235 8.0379639,4.690735 8.2039795,4.6553956 L8.2064209,4.6549073 L14.5665283,3.3717042 C14.6217041,3.3604737 15.0813598,3.2788697 15.1330566,3.2743531 C15.4768066,3.24469 15.6698608,3.470398 15.6698608,3.836731 L15.670166,13.9314576 C15.670166,14.2023926 15.6674194,14.4464111 15.6104126,14.7178345 Z" id="XMLID_24_"></path>
        </g>
    </g>
</svg>