<?xml version="1.0" encoding="UTF-8"?>
<svg width="192px" height="50px" viewBox="0 0 192 50" version="1.1" xmlns="http://www.w3.org/2000/svg" xmlns:xlink="http://www.w3.org/1999/xlink">
    <!-- Generator: Sketch 50 (54983) - http://www.bohemiancoding.com/sketch -->
    <title>crds-music-stack</title>
    <desc>Created with Sketch.</desc>
    <defs></defs>
    <g id="Page-1" stroke="none" stroke-width="1" fill="none" fill-rule="evenodd">
        <g id="crossroads-music-logo-blk" transform="translate(-194.000000, -322.000000)" fill="#FFFFFF">
            <g id="crds-music-stack" transform="translate(194.000000, 322.000000)">
                <path d="M181.1426,23.3652 C180.3966,23.3652 179.7186,23.1412 179.2296,22.7602 C178.7046,22.3512 178.4016,21.7492 178.4016,20.9612 L171.6896,20.9612 L171.6896,14.5292 C172.8986,20.6912 183.6256,18.6262 183.6256,21.6052 C183.6256,22.9892 182.3486,23.3652 181.1426,23.3652 M160.5776,22.0102 C158.0186,22.0102 157.4966,19.6112 157.4966,17.5452 C157.4966,15.3672 158.2046,12.8842 160.7996,12.8842 C163.3906,12.8842 164.1436,15.2512 164.1436,17.4342 C164.1436,19.7222 163.2756,22.0102 160.5776,22.0102 M138.6506,23.2142 C137.1076,23.2142 136.1686,22.5352 136.1686,21.5642 C136.1686,19.0092 139.5506,19.6112 142.1026,18.3702 C142.2896,21.0722 141.3896,23.2142 138.6506,23.2142 M118.3746,22.3872 C116.3806,22.3872 114.9946,20.7702 114.9946,17.0532 C114.9946,14.8442 115.7826,12.0962 118.4466,12.0962 C120.4746,11.9822 121.7496,14.1662 121.7496,17.0532 C121.7496,20.7702 120.4746,22.3872 118.3746,22.3872 M66.0196,23.3652 C65.2666,23.3652 64.5946,23.1412 64.1016,22.7602 C63.5766,22.3512 63.2776,21.7492 63.2776,20.9612 L56.4296,20.9612 C56.7986,19.8142 57.0086,18.5172 57.0086,17.0532 C57.0086,16.5722 56.9726,16.1062 56.9186,15.6482 C59.1446,20.4382 68.4966,18.8222 68.4966,21.6052 C68.4966,22.9892 67.2206,23.3652 66.0196,23.3652 M45.8226,22.3872 C43.8306,22.3872 42.4386,20.7702 42.4386,17.0532 C42.4386,14.8442 43.2316,12.0962 45.8966,12.0962 C47.9226,11.9822 49.2006,14.1662 49.2006,17.0532 C49.2006,20.7702 47.9226,22.3872 45.8226,22.3872 M179.0056,12.5122 C179.0056,11.5392 179.8676,11.1202 181.2216,11.1202 C181.8176,11.1202 182.3876,11.2762 182.7986,11.6112 C183.2136,11.9462 183.4726,12.4012 183.5446,13.0362 L190.6486,13.0362 C190.1916,7.8172 185.1616,6.8432 180.8796,6.8432 C177.1306,6.8432 172.4426,8.0882 171.6896,12.1702 L171.6896,0.0502 L163.8766,0.0502 L163.8766,9.3942 C162.2296,7.4422 160.4976,6.8432 158.0186,6.8432 C154.0056,6.8432 150.7706,9.9542 149.9116,14.9382 C149.9066,10.2752 149.3156,6.8432 140.0366,6.8432 C132.2656,6.8432 129.2956,9.2822 129.2956,13.4482 L136.8056,13.4482 C136.9936,11.7622 138.4626,11.5392 139.5506,11.5392 C140.3716,11.5392 142.1026,11.7212 142.1026,13.1512 C142.1026,16.0972 133.0996,14.0862 129.5356,17.7782 C129.5416,17.5372 129.5656,17.3022 129.5656,17.0532 C129.5656,10.9352 125.2876,6.8432 118.3396,6.8432 C114.3066,6.8432 111.0706,8.2442 109.1466,10.8662 L109.1466,6.9582 C108.8046,6.9192 108.4666,6.8432 108.1256,6.8432 C105.0896,6.8432 103.1756,8.3112 102.0826,11.3892 L102.0126,11.3892 L102.0126,7.4062 L94.9146,7.4062 L94.9146,18.3562 C92.4836,13.8122 83.0556,14.8992 83.0556,12.5122 C83.0556,11.5392 83.9206,11.1202 85.2736,11.1202 C85.8726,11.1202 86.4366,11.2762 86.8516,11.6112 C87.2646,11.9462 87.5276,12.4012 87.5986,13.0362 L94.6966,13.0362 C94.2426,7.8172 89.2146,6.8432 84.9326,6.8432 C80.8426,6.8432 75.6246,8.3112 75.6246,13.3392 C75.6246,20.9612 87.6756,18.4462 87.6756,21.6052 C87.6756,22.9892 86.4006,23.3652 85.2006,23.3652 C84.4466,23.3652 83.7676,23.1412 83.2836,22.7602 C82.7596,22.3512 82.4586,21.7492 82.4586,20.9612 L76.2976,20.9612 C76.2976,20.8972 76.3096,20.8392 76.3096,20.7702 C76.3096,13.4152 63.8746,15.2512 63.8746,12.5122 C63.8746,11.5392 64.7426,11.1202 66.0936,11.1202 C66.6936,11.1202 67.2586,11.2762 67.6696,11.6112 C68.0866,11.9462 68.3476,12.4012 68.4216,13.0362 L75.5176,13.0362 C75.0656,7.8172 70.0376,6.8432 65.7516,6.8432 C61.6656,6.8432 56.4466,8.3112 56.4466,13.3392 C56.4466,13.4012 56.4516,13.4582 56.4516,13.5192 C55.0986,9.4162 51.2806,6.8432 45.7826,6.8432 C41.7556,6.8432 38.5176,8.2442 36.5876,10.8662 L36.5876,6.9582 C36.2546,6.9192 35.9156,6.8432 35.5796,6.8432 C32.5356,6.8432 30.6236,8.3112 29.5326,11.3892 L29.4566,11.3892 L29.4566,7.4062 L22.3616,7.4062 L22.3616,19.4602 L14.5896,19.4602 C14.3606,20.9992 13.5736,22.3872 11.5506,22.3872 C9.2606,22.3872 8.1356,20.4382 8.1356,17.4692 C8.1356,15.1462 8.6206,12.0962 11.5506,12.0962 C12.4096,12.0962 13.0876,12.3682 13.5736,12.8842 C14.0666,13.3802 14.3606,14.0542 14.4056,14.9172 L22.3246,14.9172 C21.7626,9.0952 16.8086,6.8432 11.5506,6.8432 C5.0526,6.8432 0.3226,10.7122 0.3226,17.4342 C0.3226,24.0792 5.2056,27.6452 11.5506,27.6452 C16.7726,27.6452 21.3916,25.6002 22.3616,20.1562 L22.3616,27.0862 L30.1726,27.0862 L30.1726,20.2842 C30.1726,16.0502 31.7796,14.5482 34.9546,14.5422 C34.7476,15.4512 34.6336,16.4222 34.6336,17.4692 C34.6336,24.1962 39.5106,27.6452 45.8226,27.6452 C50.4286,27.6452 54.2726,25.8272 56.0066,22.0412 C56.9726,26.4492 61.5376,27.6452 65.7176,27.6452 C71.1636,27.6452 74.4186,26.0572 75.6896,23.5172 C77.2576,26.7222 81.2276,27.6452 84.8986,27.6452 C90.4156,27.6452 93.6846,26.0142 94.9146,23.4132 L94.9146,27.0862 L102.7256,27.0862 L102.7256,20.2842 C102.7256,16.0502 104.3316,14.5452 107.5106,14.5422 C107.3046,15.4512 107.1856,16.4222 107.1856,17.4692 C107.1856,24.1962 112.0626,27.6452 118.3746,27.6452 C122.6746,27.6452 126.3026,26.0722 128.1896,22.7842 C128.7226,26.1292 131.7456,27.6452 135.1196,27.6452 C138.0446,27.6452 140.2996,27.0402 142.5186,24.9782 L142.8906,27.0862 L150.9586,27.0862 L150.9586,26.7042 C149.9476,25.8852 149.9116,25.3172 149.9116,24.1962 L149.9116,20.1352 C150.7036,24.4622 153.6176,27.6452 158.6226,27.6452 C161.1336,27.6452 162.8236,26.8552 164.6596,24.4522 L164.6596,27.0862 L171.6896,27.0862 L171.6896,23.6142 C173.2876,26.7362 177.2116,27.6452 180.8416,27.6452 C188.0556,27.6452 191.4326,24.8672 191.4326,20.7702 C191.4326,13.4152 179.0056,15.2512 179.0056,12.5122" id="Fill-1"></path>
                <path d="M66.021,37.1035 L67.92,37.1035 L67.92,38.9085 L67.968,38.9085 C68.87,37.5315 70.247,36.8195 71.933,36.8195 C73.429,36.8195 74.806,37.4135 75.304,38.9085 C76.135,37.6025 77.584,36.8195 79.151,36.8195 C81.596,36.8195 83.234,37.8395 83.234,40.3805 L83.234,49.3785 L81.216,49.3785 L81.216,41.3305 C81.216,39.8105 80.813,38.5995 78.842,38.5995 C76.895,38.5995 75.637,39.8335 75.637,41.7335 L75.637,49.3785 L73.619,49.3785 L73.619,41.3305 C73.619,39.7395 73.12,38.5995 71.315,38.5995 C68.917,38.5995 68.039,40.8075 68.039,41.7335 L68.039,49.3785 L66.021,49.3785 L66.021,37.1035 Z" id="Fill-3"></path>
                <path d="M96.228,49.3789 L94.329,49.3789 L94.329,47.4319 L94.281,47.4319 C93.427,48.9509 92.049,49.6639 90.292,49.6639 C87.063,49.6639 86.066,47.8119 86.066,45.1769 L86.066,37.1039 L88.084,37.1039 L88.084,45.4139 C88.084,46.9089 89.034,47.8829 90.578,47.8829 C93.023,47.8829 94.21,46.2449 94.21,44.0369 L94.21,37.1039 L96.228,37.1039 L96.228,49.3789 Z" id="Fill-5"></path>
                <path d="M100.4175,45.5088 C100.4885,47.3138 102.0565,47.8828 103.7175,47.8828 C104.9765,47.8828 106.6865,47.5988 106.6865,46.0548 C106.6865,44.4878 104.6915,44.2268 102.6735,43.7758 C100.6785,43.3238 98.6605,42.6598 98.6605,40.3098 C98.6605,37.8398 101.1065,36.8198 103.2435,36.8198 C105.9495,36.8198 108.1105,37.6738 108.2765,40.6648 L106.2585,40.6648 C106.1155,39.0988 104.7385,38.5998 103.4095,38.5998 C102.1985,38.5998 100.7975,38.9328 100.7975,40.1668 C100.7975,41.6148 102.9345,41.8528 104.8105,42.3038 C106.8285,42.7548 108.8225,43.4198 108.8225,45.7938 C108.8225,48.7138 106.0925,49.6638 103.5995,49.6638 C100.8455,49.6638 98.5185,48.5478 98.3995,45.5088 L100.4175,45.5088 Z" id="Fill-7"></path>
                <path d="M111.027,49.379 L113.045,49.379 L113.045,37.104 L111.027,37.104 L111.027,49.379 Z M111.027,34.896 L113.045,34.896 L113.045,32.427 L111.027,32.427 L111.027,34.896 Z" id="Fill-9"></path>
                <path d="M124.3564,41.0449 C124.0474,39.5019 122.9794,38.5999 121.3174,38.5999 C118.3974,38.5999 117.4954,40.9019 117.4954,43.3959 C117.4954,45.6509 118.5164,47.8829 121.0804,47.8829 C123.0274,47.8829 124.1904,46.7429 124.4524,44.8919 L126.5174,44.8919 C126.0664,47.8829 124.1904,49.6639 121.1044,49.6639 C117.3524,49.6639 115.3574,47.0519 115.3574,43.3959 C115.3574,39.7159 117.2574,36.8189 121.1514,36.8189 C123.9294,36.8189 126.1614,38.1249 126.4464,41.0449 L124.3564,41.0449 Z" id="Fill-11"></path>
            </g>
        </g>
    </g>
</svg>