<?xml version="1.0" encoding="UTF-8"?>
<svg width="265px" height="68px" viewBox="0 0 265 68" version="1.1" xmlns="http://www.w3.org/2000/svg" xmlns:xlink="http://www.w3.org/1999/xlink">
    <!-- Generator: Sketch 50.2 (55047) - http://www.bohemiancoding.com/sketch -->
    <title>Google_Play_(2015)_(Print)</title>
    <desc>Created with Sketch.</desc>
    <defs></defs>
    <g id="Page-1" stroke="none" stroke-width="1" fill="none" fill-rule="evenodd">
        <g id="Google_Play_(2015)_(Print)" fill="#FFFFFF" fill-rule="nonzero">
            <path d="M34.7794454,33.6974391 L1.44149014,0.3554908 C0.551040503,0.874587001 -7.97000226e-08,2.07649436 -7.97000226e-08,3.64975515 L-7.97000226e-08,63.8369631 C0.0119790634,65.4102239 0.543054407,66.5242842 1.41353881,67.0992831 L34.7794454,33.6974391 Z" id="path20903"></path>
            <path d="M45.6405351,22.8243702 L5.16700364,0.607052805 C4.48547978,0.210633919 3.71134054,0.00125818068 2.92291084,0.0001095547 L35.6978464,32.771052 L45.6405351,22.8243702 Z" id="path20905"></path>
            <path d="M35.7018394,34.6238262 L2.82308464,67.5385184 C3.64830573,67.5523136 4.46114521,67.3366623 5.17099669,66.9156029 L45.7243891,44.6383898 L35.7018394,34.6238262 Z" id="path20907"></path>
            <path d="M46.8344564,23.47923 L36.6242334,33.7014321 L46.9103243,43.987523 L60.2990132,36.6003848 C63.1460562,35.031117 63.1460562,32.4476152 60.3030063,30.8863335 L46.8344564,23.47923 Z" id="path20909"></path>
            <path d="M138.195388,29.3530032 C133.053966,29.3684307 128.896249,33.5446006 128.903589,38.6860399 C128.910929,43.8274793 133.080554,47.9917606 138.221998,47.9925078 C143.363443,47.993255 147.534278,43.8301858 147.543112,38.6887487 C147.584669,36.1981603 146.612777,33.7975201 144.850291,32.0372927 C143.087805,30.2770654 140.685921,29.3082529 138.195388,29.3530032 Z M138.195388,44.3269321 C135.400254,44.3269321 132.928558,41.9830131 132.928558,38.6727765 C132.928558,35.36254 135.356331,33.018621 138.195388,33.018621 C141.034445,33.018621 143.462218,35.3066373 143.462218,38.6727765 C143.462218,42.0389157 141.006493,44.3269321 138.195388,44.3269321 Z M163.23579,31.4493532 L163.096033,31.4493532 C161.84435,30.068139 160.051883,29.3024391 158.188578,29.3530032 C153.528691,29.3530032 149.252137,33.4618493 149.252137,38.7007279 C149.252137,43.9396064 153.524698,47.9925499 158.188578,47.9925499 C160.05662,48.0462431 161.852894,47.2716094 163.096033,45.8762346 L163.23579,45.8762346 L163.23579,47.2258847 C163.23579,50.7836902 161.331106,52.6843809 158.272432,52.6843809 C155.764798,52.6843809 154.219488,50.8915025 153.584594,49.3741444 L150.026788,50.8635512 C151.40073,54.2179964 154.675538,56.400675 158.300383,56.37795 C163.09204,56.37795 167.15297,53.5828166 167.15297,46.6708511 L167.15297,29.9319951 L163.263741,29.9319951 L163.23579,31.4493532 Z M158.547952,44.3269321 C155.752819,44.3269321 153.35699,41.9550617 153.35699,38.7007279 C153.35699,35.446394 155.72886,33.018621 158.547952,33.018621 C161.367044,33.018621 163.51131,35.4144496 163.51131,38.7007279 C163.51131,41.9870061 161.331106,44.3269321 158.547952,44.3269321 Z M117.790914,29.3530032 C112.649493,29.3684307 108.491775,33.5446006 108.499115,38.6860399 C108.506455,43.8274793 112.67608,47.9917606 117.817525,47.9925078 C122.958969,47.993255 127.129804,43.8301858 127.138639,38.6887487 C127.180195,36.1981603 126.208304,33.7975201 124.445818,32.0372927 C122.683332,30.2770654 120.281447,29.3082529 117.790914,29.3530032 Z M117.790914,44.3269321 C114.995781,44.3269321 112.524084,41.9830131 112.524084,38.6727765 C112.524084,35.36254 114.951857,33.018621 117.790914,33.018621 C120.629971,33.018621 123.057744,35.3066373 123.057744,38.6727765 C123.057744,42.0389157 120.60202,44.3269321 117.790914,44.3269321 Z M93.4972118,32.1920601 L93.4972118,36.1371912 L102.956742,36.1371912 C102.681222,38.3693049 101.934522,39.9984684 100.804489,41.1285009 C99.4268877,42.5061023 97.2746349,44.0234604 93.4972118,44.0234604 C87.6950692,44.0234604 82.9915033,39.3198945 82.9915033,33.5177519 C82.9915033,27.7156094 87.6950692,23.0120434 93.4972118,23.0120434 C96.1513425,22.9790019 98.7138589,23.9816635 100.640774,25.8071768 L103.435908,23.0120434 C100.797381,20.402143 97.2200241,18.9631418 93.509191,19.0189957 C85.5230956,19.0189957 78.8107824,25.5276635 78.8107824,33.4977867 C78.8107824,41.4679099 85.5111164,47.9765777 93.509191,47.9765777 C97.8097033,47.9765777 101.064037,46.5710249 103.603616,43.9236343 C106.223055,41.304195 107.021664,37.6345841 107.021664,34.6837219 C107.025875,33.850801 106.95235,33.0193044 106.802047,32.2000462 L93.509191,32.1720949 L93.4972118,32.1920601 Z M192.772364,35.3066373 C192.001706,33.2102873 189.629835,29.3769615 184.786268,29.3769615 C179.942701,29.3769615 176.001563,33.1543846 176.001563,38.6967348 C176.001563,43.9076621 179.946695,48.0165081 185.241476,48.0165081 C188.363539,48.0319134 191.28446,46.4776893 193.01594,43.8797107 L189.84546,41.7554094 C188.799281,43.3007188 187.337826,44.318946 185.269427,44.318946 C183.201028,44.318946 181.711622,43.3526284 180.745304,41.5238126 L193.211599,36.368788 L192.772364,35.3066373 Z M180.086451,38.3932632 C179.994842,37.0215296 180.461452,35.6709886 181.380306,34.6483685 C182.29916,33.6257483 183.592272,33.0178435 184.965955,32.9627183 C186.591126,32.9627183 187.97272,33.7613279 188.411956,34.9592422 L180.086451,38.3932632 Z M169.948103,47.4455023 L174.028998,47.4455023 L174.028998,20.0611812 L169.948103,20.0611812 L169.948103,47.4455023 Z M211.962951,20.0611812 L202.171998,20.0611812 L202.171998,47.4455023 L206.252893,47.4455023 L206.252893,37.0915296 L211.962951,37.0915296 C216.487074,37.0915296 220.951301,33.8092444 220.951301,28.5703658 C220.951301,23.3314873 216.483081,20.0611812 211.962951,20.0611812 Z M212.074756,33.2142803 L206.252893,33.2142803 L206.252893,23.8386043 L212.070763,23.8386043 C214.659785,23.8386043 216.758601,25.9374209 216.758601,28.5264423 C216.758601,31.1154638 214.659785,33.2142803 212.070763,33.2142803 L212.074756,33.2142803 Z M223.215359,47.4415093 L227.296254,47.4415093 L227.296254,20.0611812 L223.211366,20.0611812 L223.211366,47.4455023 L223.215359,47.4415093 Z M237.334776,29.2971005 C234.383914,29.2971005 231.297288,30.594841 230.027499,33.4898006 L233.669158,35.0071587 C234.439816,33.4898006 235.873321,33.0106349 237.390679,33.0106349 C239.51498,33.0106349 241.66324,34.2804241 241.691191,36.5404891 L241.691191,36.8160093 C240.372777,36.1263315 238.906536,35.767308 237.41863,35.7698309 C233.50145,35.7698309 229.532361,37.9220836 229.532361,41.9470756 C229.532361,45.6126934 232.726799,47.9606055 236.3445,47.9606055 C239.103696,47.9606055 240.617061,46.7187676 241.555427,45.2852635 L241.695184,45.2852635 L241.695184,47.4095649 L245.640315,47.4095649 L245.640315,36.8838912 C245.660281,32.0283452 242.018621,29.2971005 237.330783,29.2971005 L237.334776,29.2971005 Z M236.839638,44.3269321 C235.489988,44.3269321 233.6452,43.6640862 233.6452,42.0109644 C233.6452,39.886663 235.961168,39.0880535 237.973664,39.0880535 C239.273378,39.0522033 240.558802,39.3666633 241.695184,39.9984684 C241.395718,42.4587733 239.314069,44.3129288 236.835645,44.3269321 L236.839638,44.3269321 Z M260.027266,29.9040438 L255.339428,41.7873537 L255.199671,41.7873537 L250.348119,29.9040438 L245.955766,29.9040438 L253.235092,46.5031431 L249.070343,55.7670137 L253.342904,55.7670137 L264.583334,29.9319951 L260.027266,29.9319951 L260.027266,29.9040438 Z" id="path20911"></path>
        </g>
    </g>
</svg>