<svg xmlns="http://www.w3.org/2000/svg" width="214" height="63" viewBox="0 0 214 63">
    <g fill="none" fill-rule="evenodd">
        <text fill="#4D4D4D" font-family="HelveticaNeue, Helvetica Neue" font-size="33.514" letter-spacing="-.79" transform="translate(2 2.326)">
            <tspan x="62" y="54.431">the chase</tspan> <tspan x="200.776" y="54.431">r</tspan>
        </text>
        <path stroke="#4D4D4D" stroke-linecap="round" stroke-width="4.091" d="M30.737 60.963L18.421 50.735H7.261c-2.517 0-4.577-2.052-4.577-4.56V15.75c0-2.509 2.06-4.561 4.578-4.561H39.16"/>
        <path fill="#FFF" d="M48.739 3.008H15.471c-2.516 0-4.576 2.052-4.576 4.562v30.422c0 2.51 2.06 4.562 4.576 4.562h5.935l12.762 9.991c.828.65 2.043.06 2.043-.99v-9.001H48.74c2.516 0 4.577-2.053 4.577-4.562V7.57c0-2.51-2.06-4.562-4.577-4.562"/>
        <path stroke="#4D4D4D" stroke-linecap="round" stroke-width="4.091" d="M48.739 3.008H15.471c-2.516 0-4.576 2.052-4.576 4.562v30.422c0 2.51 2.06 4.562 4.576 4.562h5.935l12.762 9.991c.828.65 2.043.06 2.043-.99v-9.001H48.74c2.516 0 4.577-2.053 4.577-4.562V7.57c0-2.51-2.06-4.562-4.577-4.562z"/>
        <path fill="#0095D9" d="M36.197 29.297l-4.16-4.15-4.075 4.066-2.434-2.431L29.6 22.72l-4.008-3.994 2.436-2.436 4.01 4 4.073-4.06 2.437 2.43-4.068 4.06 4.157 4.148-2.44 2.428zm-4.094-18.102c-6.422 0-11.629 5.187-11.629 11.591 0 6.4 5.207 11.591 11.629 11.591 6.423 0 11.634-5.191 11.634-11.59 0-6.405-5.21-11.592-11.634-11.592z"/>
    </g>
</svg>
