<?xml version="1.0" encoding="UTF-8"?>
<svg width="567px" height="170px" viewBox="0 0 567 170" version="1.1" xmlns="http://www.w3.org/2000/svg" xmlns:xlink="http://www.w3.org/1999/xlink">
    <!-- Generator: Sketch 50.2 (55047) - http://www.bohemiancoding.com/sketch -->
    <title>Spotify_Logo_RGB_White</title>
    <desc>Created with Sketch.</desc>
    <defs></defs>
    <g id="Spotify_Logo_RGB_White" stroke="none" stroke-width="1" fill="none" fill-rule="evenodd">
        <path d="M137.5324,75.5167 C110.5384,59.4857 66.0124,58.0117 40.2434,65.8327 C36.1044,67.0887 31.7284,64.7527 30.4754,60.6147 C29.2214,56.4737 31.5544,52.1007 35.6954,50.8427 C65.2774,41.8637 114.4514,43.5977 145.5274,62.0447 C149.2504,64.2547 150.4704,69.0617 148.2644,72.7777 C146.0564,76.4997 141.2454,77.7267 137.5324,75.5167 M136.6484,99.2607 C134.7544,102.3337 130.7364,103.2977 127.6674,101.4107 C105.1634,87.5777 70.8454,83.5697 44.2204,91.6517 C40.7684,92.6947 37.1214,90.7487 36.0724,87.3017 C35.0324,83.8497 36.9794,80.2097 40.4264,79.1597 C70.8414,69.9297 108.6524,74.3997 134.5004,90.2847 C137.5694,92.1747 138.5354,96.1947 136.6484,99.2607 M126.4014,122.0637 C124.8964,124.5317 121.6834,125.3047 119.2244,123.8007 C99.5594,111.7817 74.8074,109.0677 45.6574,115.7257 C42.8484,116.3697 40.0484,114.6097 39.4084,111.8017 C38.7644,108.9927 40.5184,106.1927 43.3334,105.5517 C75.2334,98.2597 102.5964,101.3977 124.6694,114.8857 C127.1304,116.3887 127.9054,119.6037 126.4014,122.0637 M87.9954,1.2767 C41.7464,1.2767 4.2524,38.7697 4.2524,85.0187 C4.2524,131.2727 41.7464,168.7637 87.9954,168.7637 C134.2464,168.7637 171.7394,131.2727 171.7394,85.0187 C171.7394,38.7697 134.2464,1.2767 87.9954,1.2767" id="Fill-1" fill="#FFFFFF"></path>
        <path d="M232.0887,78.5862 C217.6297,75.1382 215.0557,72.7182 215.0557,67.6332 C215.0557,62.8292 219.5787,59.5972 226.3047,59.5972 C232.8247,59.5972 239.2887,62.0522 246.0677,67.1062 C246.2727,67.2592 246.5297,67.3202 246.7827,67.2802 C247.0357,67.2422 247.2597,67.1042 247.4077,66.8942 L254.4677,56.9422 C254.7577,56.5322 254.6787,55.9672 254.2877,55.6542 C246.2207,49.1812 237.1367,46.0342 226.5187,46.0342 C210.9067,46.0342 200.0017,55.4022 200.0017,68.8082 C200.0017,83.1832 209.4087,88.2722 225.6647,92.2022 C239.5007,95.3892 241.8357,98.0582 241.8357,102.8322 C241.8357,108.1212 237.1147,111.4092 229.5157,111.4092 C221.0757,111.4092 214.1917,108.5662 206.4907,101.8972 C206.2997,101.7332 206.0377,101.6572 205.7957,101.6712 C205.5407,101.6922 205.3077,101.8102 205.1457,102.0052 L197.2297,111.4262 C196.8977,111.8172 196.9397,112.4012 197.3237,112.7392 C206.2837,120.7382 217.3037,124.9632 229.1947,124.9632 C246.0187,124.9632 256.8887,115.7712 256.8887,101.5442 C256.8887,89.5202 249.7057,82.8702 232.0887,78.5862" id="Fill-3" fill="#FFFFFF"></path>
        <path d="M307.1621,94.7011 C307.1621,104.8541 300.9081,111.9391 291.9531,111.9391 C283.1001,111.9391 276.4221,104.5321 276.4221,94.7011 C276.4221,84.8711 283.1001,77.4631 291.9531,77.4631 C300.7641,77.4631 307.1621,84.7111 307.1621,94.7011 M294.9501,64.3261 C287.6581,64.3261 281.6771,67.1981 276.7451,73.0831 L276.7451,66.4591 C276.7451,65.9361 276.3211,65.5101 275.7981,65.5101 L262.8521,65.5101 C262.3291,65.5101 261.9061,65.9361 261.9061,66.4591 L261.9061,140.0611 C261.9061,140.5841 262.3291,141.0101 262.8521,141.0101 L275.7981,141.0101 C276.3211,141.0101 276.7451,140.5841 276.7451,140.0611 L276.7451,116.8281 C281.6781,122.3651 287.6601,125.0691 294.9501,125.0691 C308.4991,125.0691 322.2151,114.6391 322.2151,94.7011 C322.2151,74.7591 308.4991,64.3261 294.9501,64.3261" id="Fill-5" fill="#FFFFFF"></path>
        <path d="M357.3732,112.0451 C348.0922,112.0451 341.0952,104.5881 341.0952,94.7011 C341.0952,84.7721 347.8502,77.5671 357.1592,77.5671 C366.4992,77.5671 373.5442,85.0241 373.5442,94.9181 C373.5442,104.8451 366.7432,112.0451 357.3732,112.0451 M357.3732,64.3261 C339.9242,64.3261 326.2542,77.7621 326.2542,94.9181 C326.2542,111.8871 339.8302,125.1821 357.1592,125.1821 C374.6702,125.1821 388.3822,111.7911 388.3822,94.7011 C388.3822,77.6681 374.7642,64.3261 357.3732,64.3261" id="Fill-7" fill="#FFFFFF"></path>
        <path d="M425.6439,65.5103 L411.3969,65.5103 L411.3969,50.9443 C411.3969,50.4213 410.9749,49.9953 410.4519,49.9953 L397.5069,49.9953 C396.9829,49.9953 396.5569,50.4213 396.5569,50.9443 L396.5569,65.5103 L390.3319,65.5103 C389.8109,65.5103 389.3889,65.9363 389.3889,66.4593 L389.3889,77.5853 C389.3889,78.1083 389.8109,78.5343 390.3319,78.5343 L396.5569,78.5343 L396.5569,107.3253 C396.5569,118.9603 402.3479,124.8603 413.7689,124.8603 C418.4129,124.8603 422.2659,123.9013 425.8979,121.8423 C426.1919,121.6773 426.3759,121.3593 426.3759,121.0213 L426.3759,110.4253 C426.3759,110.0983 426.2059,109.7893 425.9259,109.6183 C425.6439,109.4413 425.2929,109.4323 425.0039,109.5753 C422.5099,110.8303 420.0989,111.4093 417.4039,111.4093 C413.2509,111.4093 411.3969,109.5233 411.3969,105.2963 L411.3969,78.5343 L425.6439,78.5343 C426.1669,78.5343 426.5879,78.1083 426.5879,77.5853 L426.5879,66.4593 C426.5879,65.9363 426.1669,65.5103 425.6439,65.5103" id="Fill-9" fill="#FFFFFF"></path>
        <path d="M475.281,65.5667 L475.281,63.7777 C475.281,58.5147 477.299,56.1677 481.825,56.1677 C484.524,56.1677 486.692,56.7037 489.12,57.5137 C489.419,57.6077 489.731,57.5607 489.974,57.3817 C490.224,57.2027 490.365,56.9157 490.365,56.6127 L490.365,45.7017 C490.365,45.2857 490.097,44.9157 489.696,44.7937 C487.131,44.0307 483.849,43.2467 478.935,43.2467 C466.976,43.2467 460.656,49.9817 460.656,62.7137 L460.656,65.4537 L454.437,65.4537 C453.914,65.4537 453.486,65.8797 453.486,66.4017 L453.486,77.5857 C453.486,78.1077 453.914,78.5347 454.437,78.5347 L460.656,78.5347 L460.656,122.9437 C460.656,123.4667 461.078,123.8927 461.6,123.8927 L474.546,123.8927 C475.069,123.8927 475.495,123.4667 475.495,122.9437 L475.495,78.5347 L487.583,78.5347 L506.1,122.9317 C503.998,127.5967 501.931,128.5247 499.109,128.5247 C496.828,128.5247 494.426,127.8437 491.97,126.5007 C491.739,126.3737 491.466,126.3517 491.216,126.4297 C490.969,126.5167 490.761,126.7007 490.656,126.9407 L486.268,136.5677 C486.059,137.0227 486.237,137.5567 486.675,137.7927 C491.256,140.2737 495.392,141.3327 500.502,141.3327 C510.062,141.3327 515.346,136.8797 520.005,124.8997 L542.466,66.8587 C542.578,66.5677 542.545,66.2377 542.366,65.9787 C542.188,65.7217 541.901,65.5667 541.587,65.5667 L528.109,65.5667 C527.706,65.5667 527.344,65.8237 527.212,66.2027 L513.405,105.6397 L498.282,66.1767 C498.144,65.8097 497.791,65.5667 497.398,65.5667 L475.281,65.5667 Z" id="Fill-11" fill="#FFFFFF"></path>
        <path d="M446.5048,65.5103 L433.5578,65.5103 C433.0358,65.5103 432.6098,65.9363 432.6098,66.4593 L432.6098,122.9433 C432.6098,123.4663 433.0358,123.8923 433.5578,123.8923 L446.5048,123.8923 C447.0268,123.8923 447.4538,123.4663 447.4538,122.9433 L447.4538,66.4593 C447.4538,65.9363 447.0268,65.5103 446.5048,65.5103" id="Fill-13" fill="#FFFFFF"></path>
        <path d="M440.0974,39.7913 C434.9684,39.7913 430.8064,43.9433 430.8064,49.0723 C430.8064,54.2043 434.9684,58.3613 440.0974,58.3613 C445.2244,58.3613 449.3824,54.2043 449.3824,49.0723 C449.3824,43.9433 445.2244,39.7913 440.0974,39.7913" id="Fill-15" fill="#FFFFFF"></path>
        <path d="M554.0493,71.1288 L551.6773,71.1288 L551.6773,74.1538 L554.0493,74.1538 C555.2333,74.1538 555.9403,73.5748 555.9403,72.6408 C555.9403,71.6558 555.2333,71.1288 554.0493,71.1288 M555.5863,75.4438 L558.1643,79.0518 L555.9913,79.0518 L553.6713,75.7428 L551.6773,75.7428 L551.6773,79.0518 L549.8583,79.0518 L549.8583,69.4888 L554.1223,69.4888 C556.3443,69.4888 557.8063,70.6258 557.8063,72.5388 C557.8063,74.1068 556.9003,75.0648 555.5863,75.4438 M553.5663,66.3058 C548.9003,66.3058 545.3683,70.0158 545.3683,74.5588 C545.3683,79.0988 548.8743,82.7598 553.5193,82.7598 C558.1843,82.7598 561.7203,79.0518 561.7203,74.5068 C561.7203,69.9658 558.2113,66.3058 553.5663,66.3058 M553.5193,83.6708 C548.3953,83.6708 544.4083,79.5558 544.4083,74.5588 C544.4083,69.5618 548.4473,65.3998 553.5663,65.3998 C558.6903,65.3998 562.6773,69.5138 562.6773,74.5068 C562.6773,79.5048 558.6413,83.6708 553.5193,83.6708" id="Fill-17" fill="#FFFFFF"></path>
    </g>
</svg>